<svg width="21" height="21" viewBox="0 0 21 21" fill="none" xmlns="http://www.w3.org/2000/svg">
<g clip-path="url(#clip0_97_106)">
<path d="M14.1666 2.66669H5.83329C3.53211 2.66669 1.66663 4.53217 1.66663 6.83335V15.1667C1.66663 17.4679 3.53211 19.3334 5.83329 19.3334H14.1666C16.4678 19.3334 18.3333 17.4679 18.3333 15.1667V6.83335C18.3333 4.53217 16.4678 2.66669 14.1666 2.66669Z" fill="#312E81" stroke="#312E81" stroke-width="2" stroke-linecap="round" stroke-linejoin="round"/>
<path d="M14.5834 6.41669H14.5917M13.3334 10.475C13.4362 11.1686 13.3178 11.8769 12.9948 12.4992C12.6719 13.1215 12.161 13.6262 11.5347 13.9414C10.9085 14.2566 10.1987 14.3664 9.50653 14.255C8.81431 14.1436 8.17484 13.8168 7.67907 13.321C7.1833 12.8252 6.85648 12.1857 6.7451 11.4935C6.63371 10.8013 6.74343 10.0916 7.05865 9.46533C7.37386 8.83907 7.87853 8.32814 8.50086 8.00522C9.12319 7.68231 9.8315 7.56384 10.525 7.66669C11.2325 7.77159 11.8874 8.10124 12.3931 8.60694C12.8988 9.11264 13.2285 9.76758 13.3334 10.475Z" stroke="white" stroke-width="2" stroke-linecap="round" stroke-linejoin="round"/>
</g>
<defs>
<clipPath id="clip0_97_106">
<rect width="20" height="20" fill="white" transform="translate(0 1)"/>
</clipPath>
</defs>
</svg>
