<svg width="21" height="21" viewBox="0 0 21 21" fill="none" xmlns="http://www.w3.org/2000/svg">
<g clip-path="url(#clip0_97_110)">
<path d="M13.3333 9.66669C14.6594 9.66669 15.9311 10.1935 16.8688 11.1312C17.8065 12.0688 18.3333 13.3406 18.3333 14.6667V20.5H15V14.6667C15 14.2247 14.8244 13.8007 14.5118 13.4882C14.1992 13.1756 13.7753 13 13.3333 13C12.8913 13 12.4673 13.1756 12.1548 13.4882C11.8422 13.8007 11.6666 14.2247 11.6666 14.6667V20.5H8.33329V14.6667C8.33329 13.3406 8.86008 12.0688 9.79776 11.1312C10.7354 10.1935 12.0072 9.66669 13.3333 9.66669ZM1.66663 10.5H4.99996V20.5H1.66663V10.5Z" fill="#312E81"/>
<path d="M3.33329 8.00002C4.25377 8.00002 4.99996 7.25383 4.99996 6.33335C4.99996 5.41288 4.25377 4.66669 3.33329 4.66669C2.41282 4.66669 1.66663 5.41288 1.66663 6.33335C1.66663 7.25383 2.41282 8.00002 3.33329 8.00002Z" stroke="#312E81" stroke-width="2" stroke-linecap="round" stroke-linejoin="round"/>
</g>
<defs>
<clipPath id="clip0_97_110">
<rect width="21" height="21" fill="white"/>
</clipPath>
</defs>
</svg>
